<svg height="227pt" preserveAspectRatio="xMidYMid meet" viewBox="0 0 222 227" width="222pt" xmlns="http://www.w3.org/2000/svg"><g transform="matrix(.1 0 0 -.1 0 227)"><path d="m404 1770c-106-34-194-131-194-212 1-102 119-210 255-233 26-5 54-20 80-45 41-39 113-80 140-80 23 0 19 7-26 50-50 48-48 69 8 85 142 42 228 155 201 262-14 57-81 126-156 161-78 36-218 41-308 12z"/><path d="m1195 1208c4-68 4-120 0-116s-22 44-41 90c-56 140-76 105-25-43 25-71 27-85 14-87-8-2-36 17-62 42s-50 46-54 46c-17 0-3-30 43-89 33-41 56-83 66-120 8-31 22-73 30-93 19-52 23-101 29-435l5-293h-181-181l7 87c15 205 45 408 64 433 22 30 105 98 152 124 32 18 33 19 13 28-16 7-31 5-62-11-79-41-96 1-58 142 14 52 26 102 26 111 0 35-20 13-44-51-35-90-50-111-42-58 4 22 9 72 13 110 6 62 4 69-9 57-8-7-21-46-28-90-17-100-26-117-34-64-3 23-9 60-12 82s-10 43-16 46c-8 5-9-25-6-95 3-55 1-101-3-101-9 0-37 36-63 82-30 51-32 11-3-59 33-78 45-245 23-318-8-27-26-124-40-215s-30-182-36-203l-11-37h-106c-104 0-105 0-99 23 3 12 10 74 16 137 21 228 45 295 144 398 28 28 47 52 42 52-4 0-27-12-52-26-24-14-44-21-44-15s13 33 30 59c16 27 30 54 30 61 0 23-16 10-43-35-15-26-30-44-33-41s1 30 10 60c18 63 20 77 7 77-5 0-21-33-35-72l-26-73 4 73c6 86-8 95-24 15-17-93-29-130-46-144-14-12-20-9-44 19-14 17-34 32-44 32-16 0-16-2 2-27 34-49 62-111 62-140 0-15-12-63-26-106-14-42-36-132-47-200l-22-122-163-3-162-2v-55-55h1110 1110v55 55h-165-165l-19 39c-11 21-31 88-45 149s-37 134-51 162c-14 27-33 87-41 133-15 78-15 109 1 185 11 47-12 41-26-8-19-61-36-69-43-20-3 22-9 58-12 80s-11 40-16 40c-7 0-9-24-5-72 7-79 0-79-34 2-12 30-28 62-36 70-22 24-17-17 12-90 14-35 23-65 21-67-1-2-22 25-46 59s-46 56-48 49c-2-6 15-49 38-95 25-48 40-92 38-107-3-23-6-24-60-21-67 4-77-10-20-28 76-25 133-63 154-103 11-22 31-98 44-169 13-70 28-137 34-148 21-39 15-40-160-40-93 0-170 2-170 4 0 20-52 507-59 561-6 39-11 84-11 101 0 38 60 133 126 198 24 25 44 49 44 55 0 22-39 10-80-24-49-41-60-43-86-14-16 18-19 40-22 165-2 83-8 144-13 144-13 0-15-9-29-112-7-49-15-86-20-83-4 2-10 44-14 92-9 111-14 133-33 133-14 0-15-16-8-122z"/></g></svg>